<svg width="89" height="89" viewBox="0 0 89 89" fill="none" xmlns="http://www.w3.org/2000/svg">
<path d="M45.1666 81.5834C65.6472 81.5834 82.25 64.9806 82.25 44.5001C82.25 24.0195 65.6472 7.41675 45.1666 7.41675C24.6861 7.41675 8.08331 24.0195 8.08331 44.5001C8.08331 64.9806 24.6861 81.5834 45.1666 81.5834Z" stroke="#FF8800" stroke-width="4" stroke-linecap="round" stroke-linejoin="round"/>
<path d="M45.1666 66.7501C57.455 66.7501 67.4166 56.7884 67.4166 44.5001C67.4166 32.2117 57.455 22.2501 45.1666 22.2501C32.8783 22.2501 22.9166 32.2117 22.9166 44.5001C22.9166 56.7884 32.8783 66.7501 45.1666 66.7501Z" stroke="#FF8800" stroke-width="4" stroke-linecap="round" stroke-linejoin="round"/>
<path d="M45.1666 51.9167C49.2628 51.9167 52.5833 48.5962 52.5833 44.5001C52.5833 40.404 49.2628 37.0834 45.1666 37.0834C41.0705 37.0834 37.75 40.404 37.75 44.5001C37.75 48.5962 41.0705 51.9167 45.1666 51.9167Z" stroke="#FF8800" stroke-width="4" stroke-linecap="round" stroke-linejoin="round"/>
</svg>
