<svg width="89" height="89" viewBox="0 0 89 89" fill="none" xmlns="http://www.w3.org/2000/svg">
<path d="M74.1667 11.125V25.9584M81.5834 18.5417H66.75M14.8333 63.0417V70.4584M18.5417 66.75H11.125M36.8497 57.4792C36.5186 56.1959 35.8497 55.0247 34.9125 54.0875C33.9754 53.1503 32.8042 52.4814 31.5208 52.1503L8.77021 46.2837C8.38206 46.1736 8.04044 45.9398 7.79718 45.6179C7.55393 45.296 7.42232 44.9035 7.42232 44.5C7.42232 44.0966 7.55393 43.7041 7.79718 43.3822C8.04044 43.0603 8.38206 42.8265 8.77021 42.7163L31.5208 36.846C32.8037 36.5153 33.9746 35.8469 34.9118 34.9104C35.8489 33.9739 36.5181 32.8035 36.8497 31.5209L42.7163 8.77024C42.8254 8.38056 43.0589 8.03725 43.3813 7.7927C43.7037 7.54815 44.0972 7.41577 44.5019 7.41577C44.9065 7.41577 45.3001 7.54815 45.6224 7.7927C45.9448 8.03725 46.1784 8.38056 46.2874 8.77024L52.1503 31.5209C52.4814 32.8042 53.1503 33.9754 54.0875 34.9126C55.0247 35.8497 56.1958 36.5187 57.4792 36.8497L80.2298 42.7126C80.6211 42.8205 80.9661 43.0538 81.2119 43.3767C81.4578 43.6996 81.591 44.0942 81.591 44.5C81.591 44.9059 81.4578 45.3005 81.2119 45.6234C80.9661 45.9462 80.6211 46.1795 80.2298 46.2874L57.4792 52.1503C56.1958 52.4814 55.0247 53.1503 54.0875 54.0875C53.1503 55.0247 52.4814 56.1959 52.1503 57.4792L46.2837 80.2298C46.1747 80.6195 45.9411 80.9628 45.6187 81.2074C45.2964 81.4519 44.9028 81.5843 44.4982 81.5843C44.0935 81.5843 43.7 81.4519 43.3776 81.2074C43.0552 80.9628 42.8216 80.6195 42.7126 80.2298L36.8497 57.4792Z" stroke="#0033FF" stroke-width="4" stroke-linecap="round" stroke-linejoin="round"/>
</svg>
