<svg width="89" height="89" viewBox="0 0 89 89" fill="none" xmlns="http://www.w3.org/2000/svg">
<path d="M37.0833 77.875V29.6667C37.0833 28.6832 36.6926 27.7399 35.9972 27.0445C35.3017 26.349 34.3585 25.9583 33.375 25.9583H14.8333C13.8498 25.9583 12.9066 26.349 12.2111 27.0445C11.5157 27.7399 11.125 28.6832 11.125 29.6667V74.1667C11.125 75.1502 11.5157 76.0934 12.2111 76.7889C12.9066 77.4843 13.8498 77.875 14.8333 77.875H59.3333C60.3168 77.875 61.2601 77.4843 61.9555 76.7889C62.651 76.0934 63.0417 75.1502 63.0417 74.1667V55.625C63.0417 54.6415 62.651 53.6983 61.9555 53.0028C61.2601 52.3074 60.3168 51.9167 59.3333 51.9167H11.125M55.625 11.125H74.1667C76.2147 11.125 77.875 12.7853 77.875 14.8333V33.375C77.875 35.4231 76.2147 37.0833 74.1667 37.0833H55.625C53.5769 37.0833 51.9167 35.4231 51.9167 33.375V14.8333C51.9167 12.7853 53.5769 11.125 55.625 11.125Z" stroke="#7500A7" stroke-width="4" stroke-linecap="round" stroke-linejoin="round"/>
</svg>
