<svg width="89" height="89" viewBox="0 0 89 89" fill="none" xmlns="http://www.w3.org/2000/svg">
<path d="M33.375 33.3751H33.4121M55.625 33.3751H55.6621M81.5833 44.5001C81.5833 64.9806 64.9806 81.5834 44.5 81.5834C24.0194 81.5834 7.41666 64.9806 7.41666 44.5001C7.41666 24.0195 24.0194 7.41675 44.5 7.41675C64.9806 7.41675 81.5833 24.0195 81.5833 44.5001ZM66.75 48.2084C65.8652 53.4462 63.1357 58.1945 59.0549 61.5952C54.9742 64.9958 49.8114 66.8243 44.5 66.7501C39.1886 66.8243 34.0258 64.9958 29.9451 61.5952C25.8643 58.1945 23.1348 53.4462 22.25 48.2084H66.75Z" stroke="#7BB900" stroke-width="4" stroke-linecap="round" stroke-linejoin="round"/>
</svg>
